<svg xmlns="http://www.w3.org/2000/svg" xmlns:xlink="http://www.w3.org/1999/xlink" viewBox="0 0 1200 760">
<defs><linearGradient id="bg" x1="0" y1="0" x2="1" y2="1"><stop stop-color="#081522"/><stop offset="1" stop-color="#203b52"/></linearGradient><linearGradient id="glass"><stop stop-color="#ffffff" stop-opacity=".18"/><stop offset="1" stop-color="#ffffff" stop-opacity=".05"/></linearGradient><filter id="shadow"><feDropShadow dx="0" dy="18" stdDeviation="22" flood-opacity=".28"/></filter></defs>
<rect width="1200" height="760" rx="30" fill="url(#bg)"/><rect x="34" y="28" width="1132" height="62" rx="18" fill="#ffffff" fill-opacity=".92"/><text x="62" y="68" font-family="Arial" font-size="24" font-weight="800" fill="#172033">AutoKlinika POZNA</text><text x="330" y="66" font-family="Arial" font-size="13" fill="#526078">STRONA GWNA   USUGI   CENNIK   OPINIE   KONTAKT</text><text x="62" y="150" font-family="Arial" font-size="40" font-weight="900" fill="#fff">Umw serwis</text><rect x="62" y="190" width="720" height="460" rx="24" fill="#fff"/><text x="95" y="235" font-family="Arial" font-size="12" fill="#657389">DANE KLIENTA</text><rect x="95" y="250" width="310" height="45" rx="8" fill="#edf1f5"/><rect x="430" y="250" width="310" height="45" rx="8" fill="#edf1f5"/><text x="95" y="330" font-family="Arial" font-size="12" fill="#657389">SAMOCHD</text><rect x="95" y="345" width="200" height="45" rx="8" fill="#edf1f5"/><rect x="315" y="345" width="200" height="45" rx="8" fill="#edf1f5"/><rect x="535" y="345" width="205" height="45" rx="8" fill="#edf1f5"/><text x="95" y="425" font-family="Arial" font-size="12" fill="#657389">PROBLEM / USUGA</text><rect x="95" y="440" width="645" height="90" rx="8" fill="#edf1f5"/><rect x="95" y="560" width="180" height="45" rx="9" fill="#ff263b"/><text x="132" y="588" font-family="Arial" font-size="13" font-weight="800" fill="#fff">ZAMW TERMIN</text><rect x="825" y="190" width="311" height="460" rx="24" fill="#fff" fill-opacity=".08" stroke="#fff" stroke-opacity=".12"/><text x="855" y="240" font-family="Arial" font-size="18" font-weight="800" fill="#fff">AutoKlinika Pozna</text><text x="855" y="285" font-family="Arial" font-size="13" fill="#c0d0df">ul. Gwna 45</text><text x="855" y="320" font-family="Arial" font-size="13" fill="#c0d0df">+48 723 456 789</text><text x="855" y="355" font-family="Arial" font-size="13" fill="#c0d0df">PonPt 8:0018:00</text><rect x="855" y="405" width="250" height="145" rx="18" fill="#fff" fill-opacity=".08"/><text x="880" y="480" font-family="Arial" font-size="14" fill="#fff">MAPA + DOJAZD</text></svg>