<svg xmlns="http://www.w3.org/2000/svg" xmlns:xlink="http://www.w3.org/1999/xlink" viewBox="0 0 1200 760">
<defs><linearGradient id="bg" x1="0" y1="0" x2="1" y2="1"><stop stop-color="#f5eadc"/><stop offset="1" stop-color="#b7834a"/></linearGradient><linearGradient id="glass"><stop stop-color="#ffffff" stop-opacity=".18"/><stop offset="1" stop-color="#ffffff" stop-opacity=".05"/></linearGradient><filter id="shadow"><feDropShadow dx="0" dy="18" stdDeviation="22" flood-opacity=".28"/></filter></defs>
<rect width="1200" height="760" rx="30" fill="url(#bg)"/><rect x="34" y="28" width="1132" height="62" rx="18" fill="#ffffff" fill-opacity=".92"/><text x="62" y="68" font-family="Arial" font-size="24" font-weight="800" fill="#172033">Restauracja Stary Rynek</text><text x="330" y="66" font-family="Arial" font-size="13" fill="#526078">O NAS   MENU   GALERIA   REZERWACJE   KONTAKT</text><text x="62" y="145" font-family="Georgia" font-size="43" font-weight="700" fill="#3a2417">Menu</text><text x="62" y="178" font-family="Arial" font-size="14" fill="#806d5c">Sezonowe skadniki  klasyczne receptury  autorski twist.</text><rect x="62" y="205" width="1074" height="52" rx="12" fill="#fff" stroke="#e4d7c7"/><text x="92" y="238" font-family="Arial" font-size="13" fill="#796b5d">PRZYSTAWKI ZUPY DANIA GWNE DESERY NAPOJE</text><clipPath id="p62"><rect x="62" y="285" width="300" height="220" rx="24"/></clipPath><image x="62" y="285" width="300" height="220" preserveAspectRatio="xMidYMid slice" clip-path="url(#p62)" xlink:href="https://images.unsplash.com/photo-1515003197210-e0cd71810b5f?auto=format&amp;fit=crop&amp;fm=jpg&amp;ixlib=rb-4.1.0&amp;q=82&amp;w=1400"/><rect x="62" y="285" width="300" height="220" rx="24" fill="#000" fill-opacity=".16"/><rect x="390" y="285" width="746" height="220" rx="22" fill="#fff" stroke="#e4d7c7"/><text x="425" y="330" font-family="Georgia" font-size="24" font-weight="700" fill="#3a2417">Schabowy po staropolsku</text><text x="425" y="365" font-family="Arial" font-size="13" fill="#77695b">ziemniaki, mizeria, maso klarowane</text><text x="425" y="410" font-family="Arial" font-size="24" font-weight="800" fill="#9b642b">36 z</text><rect x="425" y="440" width="150" height="38" rx="8" fill="#3a2417"/><text x="460" y="464" font-family="Arial" font-size="12" font-weight="700" fill="#fff">DODAJ DO ZAMWIENIA</text><rect x="62" y="540" width="330" height="155" rx="20" fill="#fff" fill-opacity=".94"/><text x="84" y="580" font-family="Arial" font-size="17" font-weight="800" fill="#182238">Pierogi</text><text x="84" y="610" font-family="Arial" font-size="12" fill="#69758d">32 z</text><rect x="84" y="645" width="286" height="8" rx="4" fill="#dbe3ef"/><rect x="412" y="540" width="330" height="155" rx="20" fill="#fff" fill-opacity=".94"/><text x="434" y="580" font-family="Arial" font-size="17" font-weight="800" fill="#182238">oso z grilla</text><text x="434" y="610" font-family="Arial" font-size="12" fill="#69758d">49 z</text><rect x="434" y="645" width="286" height="8" rx="4" fill="#dbe3ef"/><rect x="762" y="540" width="330" height="155" rx="20" fill="#fff" fill-opacity=".94"/><text x="784" y="580" font-family="Arial" font-size="17" font-weight="800" fill="#182238">Sernik domowy</text><text x="784" y="610" font-family="Arial" font-size="12" fill="#69758d">19 z</text><rect x="784" y="645" width="286" height="8" rx="4" fill="#dbe3ef"/></svg>